<?xml version="1.0" standalone="no"?><!DOCTYPE svg PUBLIC "-//W3C//DTD SVG 1.1//EN" "http://www.w3.org/Graphics/SVG/1.1/DTD/svg11.dtd"><svg t="1647936141898" class="icon" viewBox="0 0 1024 1024" version="1.1" xmlns="http://www.w3.org/2000/svg" p-id="83294" xmlns:xlink="http://www.w3.org/1999/xlink" width="32" height="32"><defs><style type="text/css"></style></defs><path d="M512 1012.363636a498.711273 498.711273 0 0 1-353.815273-146.548363A498.711273 498.711273 0 0 1 11.636364 512 498.711273 498.711273 0 0 1 158.184727 158.184727 498.711273 498.711273 0 0 1 512 11.636364a498.711273 498.711273 0 0 1 353.815273 146.548363A498.711273 498.711273 0 0 1 1012.363636 512a498.734545 498.734545 0 0 1-146.548363 353.815273A498.734545 498.734545 0 0 1 512 1012.363636z" fill="#d6dae0" p-id="83295" data-spm-anchor-id="a313x.7781069.0.i48" class="selected"></path><path d="M512 23.272727A487.121455 487.121455 0 0 0 166.4 166.4 487.121455 487.121455 0 0 0 23.272727 512a487.121455 487.121455 0 0 0 143.127273 345.6A487.121455 487.121455 0 0 0 512 1000.727273a487.121455 487.121455 0 0 0 345.6-143.127273A487.121455 487.121455 0 0 0 1000.727273 512a487.121455 487.121455 0 0 0-143.127273-345.6A487.121455 487.121455 0 0 0 512 23.272727m0-23.272727c282.763636 0 512 229.236364 512 512s-229.236364 512-512 512S0 794.763636 0 512 229.236364 0 512 0z" fill="#d6dae0" p-id="83296"></path><path d="M770.513455 566.411636a25.181091 25.181091 0 0 0 0-49.850181 75.799273 75.799273 0 0 0-46.010182-46.173091v-119.738182h42.356363a25.204364 25.204364 0 1 0 0-50.385455h-42.356363v-42.356363a25.204364 25.204364 0 0 0-50.385455 0v42.356363h-119.714909a75.799273 75.799273 0 0 0-46.173091-46.010182 25.181091 25.181091 0 0 0-49.850182 0 75.799273 75.799273 0 0 0-46.173091 46.010182h-61.556363v-42.356363a25.204364 25.204364 0 0 0-50.385455 0v42.356363h-42.379636a25.204364 25.204364 0 0 0 0 50.385455h42.356364v165.632h-42.356364a25.204364 25.204364 0 0 0 0 50.385454h42.356364v107.473455h-42.356364a25.204364 25.204364 0 0 0 0 50.385454h42.356364v42.356364a25.204364 25.204364 0 1 0 50.385454 0v-42.356364h107.473455v42.356364a25.204364 25.204364 0 1 0 50.385454 0v-42.356364h165.632v42.356364a25.204364 25.204364 0 1 0 50.385455 0v-42.356364h42.356363a25.204364 25.204364 0 1 0 0-50.385454h-42.356363V612.538182a75.822545 75.822545 0 0 0 46.010182-46.126546z m-34.909091-24.925091a36.235636 36.235636 0 1 1-36.235637-36.235636 36.282182 36.282182 0 0 1 36.212364 36.235636z m-181.154909-190.836363h119.738181v119.738182a75.799273 75.799273 0 0 0-45.893818 45.893818H508.509091V396.567273a75.799273 75.799273 0 0 0 45.917091-45.893818z m-96.279273 323.490909h-107.473455v-107.473455h107.473455z m0-157.858909h-107.473455v-165.632h61.556364a75.799273 75.799273 0 0 0 45.893818 45.893818v119.738182z m25.181091-154.577455a36.235636 36.235636 0 1 1 36.235636-36.235636 36.282182 36.282182 0 0 1-36.258909 36.258909z m25.181091 312.436364v-107.473455h119.738181a75.799273 75.799273 0 0 0 45.870546 45.870546v61.556363H508.509091z" fill="#ffffff" p-id="83297" data-spm-anchor-id="a313x.7781069.0.i51" class=""></path></svg>