<?xml version="1.0" standalone="no"?><!DOCTYPE svg PUBLIC "-//W3C//DTD SVG 1.1//EN" "http://www.w3.org/Graphics/SVG/1.1/DTD/svg11.dtd"><svg t="1647859793028" class="icon" viewBox="0 0 1024 1024" version="1.1" xmlns="http://www.w3.org/2000/svg" p-id="2633" xmlns:xlink="http://www.w3.org/1999/xlink" width="200" height="200"><defs><style type="text/css"></style></defs><path d="M512 512m-512 0a512 512 0 1 0 1024 0 512 512 0 1 0-1024 0Z" fill="#e6e6e6" p-id="2634"></path><path d="M512 238.933333s-38.343111 165.774222-140.288 212.195556l87.267556 212.195555h106.040888l87.267556-212.195555C542.947556 405.504 512 238.933333 512 238.933333z" fill="#E1E1E6" p-id="2635"></path><path d="M565.020444 674.702222h-106.040888a11.377778 11.377778 0 0 1-10.467556-7.054222L361.130667 455.111111a11.377778 11.377778 0 0 1 5.802666-14.677333C462.620444 397.312 500.622222 238.023111 500.622222 236.316444a11.377778 11.377778 0 0 1 11.377778-8.760888 11.377778 11.377778 0 0 1 11.377778 9.329777C523.377778 238.933333 554.325333 398.222222 656.725333 440.661333a11.377778 11.377778 0 0 1 6.144 14.791111l-87.267555 212.195556a11.377778 11.377778 0 0 1-10.581334 7.054222z m-98.531555-22.755555h91.022222l79.644445-195.015111c-73.386667-36.750222-110.364444-123.790222-126.407112-175.445334-17.635556 51.313778-56.888889 137.784889-125.155555 175.104z" fill="#464C63" p-id="2636"></path><path d="M512 460.572444a11.377778 11.377778 0 0 1-11.377778-11.377777V238.933333a11.377778 11.377778 0 0 1 11.377778-11.377777 11.377778 11.377778 0 0 1 11.377778 11.377777v210.261334a11.377778 11.377778 0 0 1-11.377778 11.377777z" fill="#464C63" p-id="2637"></path><path d="M512 483.555556m-34.360889 0a34.360889 34.360889 0 1 0 68.721778 0 34.360889 34.360889 0 1 0-68.721778 0Z" fill="#BDC3C7" p-id="2638"></path><path d="M512 529.408a45.511111 45.511111 0 1 1 45.511111-45.511111 45.511111 45.511111 0 0 1-45.511111 45.511111z m0-68.266667a22.755556 22.755556 0 1 0 22.755556 22.755556 22.755556 22.755556 0 0 0-22.755556-23.324445z" fill="#414E5C" p-id="2639"></path><path d="M428.032 663.324444h167.936V785.066667H428.032z" fill="#FABD6B" p-id="2640"></path><path d="M595.968 796.444444H428.032a11.377778 11.377778 0 0 1-11.377778-11.377777V663.324444a11.377778 11.377778 0 0 1 11.377778-11.377777h167.936a11.377778 11.377778 0 0 1 11.377778 11.377777V785.066667a11.377778 11.377778 0 0 1-11.377778 11.377777z m-156.558222-22.755555h145.180444v-98.986667H439.409778z" fill="#464C63" p-id="2641"></path></svg>