<?xml version="1.0" standalone="no"?><!DOCTYPE svg PUBLIC "-//W3C//DTD SVG 1.1//EN" "http://www.w3.org/Graphics/SVG/1.1/DTD/svg11.dtd"><svg t="1647870819496" class="icon" viewBox="0 0 1024 1024" version="1.1" xmlns="http://www.w3.org/2000/svg" p-id="21267" xmlns:xlink="http://www.w3.org/1999/xlink" width="200" height="200"><defs><style type="text/css"></style></defs><path d="M512 0c282.76736 0 512 229.23264 512 512s-229.23264 512-512 512S0 794.76736 0 512 229.23264 0 512 0z" fill="#3DB39E" p-id="21268"></path><path d="M528.16896 495.03232c-16.70144-39.8336-61.24544-81.37728-157.62432-116.11136-97.98656 240.90624 50.65728 264.77568 100.41344 266.28096-27.93472-52.23424-59.93472-143.36-70.12352-196.72064 18.93376 42.89536 54.48704 110.2848 89.36448 156.48768-16.64-49.664 2.816-84.93056 37.96992-109.93664z m111.50336-27.56608C451.29728 508.928 505.78432 606.3616 526.86848 635.22816c18.2272-33.98656 42.02496-64.4096 70.90176-90.95168-20.86912 31.06816-34.65216 65.10592-42.68032 100.98688 44.20608 0.62464 136.36608-16.20992 84.5824-177.79712z" fill="#37A18E" p-id="21269"></path><path d="M800.4096 590.88896C765.04064 721.03936 647.03488 811.776 512 811.776a298.56768 298.56768 0 0 1-220.08832-96.98304l38.56384-16.8448a13.96736 13.96736 0 0 0 3.03104-23.74656l0.01024-0.02048-114.71872-90.60352a13.9264 13.9264 0 0 0-22.48704 9.8304h-0.01024l-12.01152 145.96096a13.96736 13.96736 0 0 0 20.31616 13.568l60.54912-26.44992C327.18848 798.39232 416.6144 839.76192 512 839.76192c147.78368 0 276.50048-99.13344 315.21792-241.55136 4.80256-17.68448-21.99552-24.99584-26.80832-7.3216zM223.60064 433.08032c35.328-129.9456 153.1904-220.86656 288.39936-220.86656a297.8816 297.8816 0 0 1 220.11904 96.9728l-38.58432 16.85504a13.9776 13.9776 0 0 0-3.04128 23.7568h-0.01024l114.71872 90.60352a13.91616 13.91616 0 0 0 22.49728-9.82016h0.01024l12.01152-145.95072a13.9776 13.9776 0 0 0-12.7488-15.09376 13.98784 13.98784 0 0 0-7.56736 1.52576l-60.52864 26.43968C696.91392 225.69984 607.11936 184.2176 512 184.2176c-147.99872 0-276.54144 99.35872-315.19744 241.54112-4.8128 17.68448 21.99552 25.01632 26.79808 7.3216z" fill="#318F7E" p-id="21270"></path><path d="M548.64896 484.79232c-16.70144-39.8336-61.24544-81.37728-157.62432-116.11136-97.98656 240.90624 50.65728 264.77568 100.41344 266.28096-27.93472-52.23424-59.93472-143.36-70.12352-196.72064 18.93376 42.89536 54.48704 110.2848 89.36448 156.48768-16.64-49.664 2.816-84.93056 37.96992-109.93664z m111.50336-27.56608C471.77728 498.688 526.26432 596.1216 547.34848 624.98816c18.2272-33.98656 42.02496-64.4096 70.90176-90.95168-20.86912 31.06816-34.65216 65.10592-42.68032 100.98688 44.20608 0.62464 136.36608-16.20992 84.5824-177.79712z" fill="#FFFFFF" p-id="21271"></path></svg>