<?xml version="1.0" standalone="no"?><!DOCTYPE svg PUBLIC "-//W3C//DTD SVG 1.1//EN" "http://www.w3.org/Graphics/SVG/1.1/DTD/svg11.dtd"><svg t="1647936123529" class="icon" viewBox="0 0 1024 1024" version="1.1" xmlns="http://www.w3.org/2000/svg" p-id="82863" xmlns:xlink="http://www.w3.org/1999/xlink" width="32" height="32"><defs><style type="text/css"></style></defs><path d="M361.794576 361.806013m0.045749 0l300.296475 0q0.045749 0 0.045749 0.045749l0 300.296476q0 0.045749-0.045749 0.045749l-300.296475 0q-0.045749 0-0.045749-0.045749l0-300.296476q0-0.045749 0.045749-0.045749Z" fill="#d6dae0" p-id="82864"></path><path d="M512.011437 0C229.236832 0 0 229.236832 0 512 0 794.774606 229.236832 1024 512 1024c282.763168 0 512-229.225394 512-512C1024.011437 229.225394 794.786043 0 512.011437 0z m257.566904 694.01242a18.779967 18.779967 0 0 1-13.495957 5.718626h-56.305589v55.790913A19.088773 19.088773 0 0 1 681.660189 774.78229 18.779967 18.779967 0 0 1 662.216861 756.002323v-56.214091H361.886074v55.790913a19.088773 19.088773 0 0 1-18.128043 19.248894 18.779967 18.779967 0 0 1-19.443328-18.76853v-56.271277H268.432292A19.088773 19.088773 0 0 1 249.171961 681.660189a18.779967 18.779967 0 0 1 18.76853-19.443328h56.282714V361.886074H268.432292a19.088773 19.088773 0 0 1-19.248894-18.128043 18.779967 18.779967 0 0 1 18.76853-19.443328h56.282714V268.432292c0-10.202028 7.926015-18.917214 18.128044-19.248894a18.779967 18.779967 0 0 1 19.443327 18.76853v56.282714h300.250726V268.432292c0-10.202028 7.926015-18.917214 18.128044-19.248894a18.779967 18.779967 0 0 1 19.443328 18.76853v56.282714h55.790912c10.202028 0 18.917214 7.926015 19.248895 18.128044a18.779967 18.779967 0 0 1-18.76853 19.443327h-56.122593V662.216861h55.80235a19.088773 19.088773 0 0 1 19.248894 18.128044 18.779967 18.779967 0 0 1-5.249698 13.667515z" fill="#d6dae0" p-id="82865"></path></svg>